HIERARCHY
ROOT Hips
{
	OFFSET 0.000000 89.005402 0.000000
	CHANNELS 6 Xposition Yposition Zposition Xrotation Yrotation Zrotation
	JOINT Spine
	{
		OFFSET 0.116900 10.681000 0.373400
		CHANNELS 3 Xrotation Yrotation Zrotation
		JOINT Spine1
		{
			OFFSET 0.000000 13.840401 0.053500
			CHANNELS 3 Xrotation Yrotation Zrotation
			JOINT Spine2
			{
				OFFSET 0.000000 14.712700 -0.366200
				CHANNELS 3 Xrotation Yrotation Zrotation
				JOINT Neck
				{
					OFFSET 0.000000 35.415497 -3.314200
					CHANNELS 3 Xrotation Yrotation Zrotation
					JOINT Head
					{
						OFFSET 0.000000 16.899200 1.218300
						CHANNELS 3 Xrotation Yrotation Zrotation
						JOINT HeadTop_End
						{
							OFFSET 0.000000 22.206207 2.192500
							CHANNELS 3 Xrotation Yrotation Zrotation
							End Site
							{
								OFFSET 0.000000 22.314178 0.000000
							}
						}
					}
				}
				JOINT LeftShoulder
				{
					OFFSET 12.896400 26.716293 -4.548400
					CHANNELS 3 Xrotation Yrotation Zrotation
					JOINT LeftArm
					{
						OFFSET 19.027000 -4.857010 -1.718400
						CHANNELS 3 Xrotation Yrotation Zrotation
						JOINT LeftForeArm
						{
							OFFSET 24.179897 0.000000 0.000000
							CHANNELS 3 Xrotation Yrotation Zrotation
							JOINT LeftHand
							{
								OFFSET 27.156403 0.000000 0.000000
								CHANNELS 3 Xrotation Yrotation Zrotation
								JOINT LeftHandIndex1
								{
									OFFSET 16.441200 0.000000 0.000000
									CHANNELS 3 Xrotation Yrotation Zrotation
									JOINT LeftHandIndex2
									{
										OFFSET 4.821899 0.000000 0.000000
										CHANNELS 3 Xrotation Yrotation Zrotation
										JOINT LeftHandIndex3
										{
											OFFSET 6.386497 0.000000 0.000000
											CHANNELS 3 Xrotation Yrotation Zrotation
											JOINT LeftHandIndex4
											{
												OFFSET 5.188988 0.000000 0.000000
												CHANNELS 3 Xrotation Yrotation Zrotation
												End Site
												{
													OFFSET -0.178703 5.185913 0.000177
												}
											}
										}
									}
								}
								JOINT LeftHandThumb1
								{
									OFFSET 6.534897 -5.032593 5.900300
									CHANNELS 3 Xrotation Yrotation Zrotation
									JOINT LeftHandThumb2
									{
										OFFSET 3.818176 -2.204422 2.204423
										CHANNELS 3 Xrotation Yrotation Zrotation
										JOINT LeftHandThumb3
										{
											OFFSET 3.252098 -1.877594 1.877601
											CHANNELS 3 Xrotation Yrotation Zrotation
											JOINT LeftHandThumb4
											{
												OFFSET 5.251778 -3.032120 3.032117
												CHANNELS 3 Xrotation Yrotation Zrotation
												End Site
												{
													OFFSET 0.000023 6.780014 0.000000
												}
											}
										}
									}
								}
							}
						}
					}
				}
				JOINT RightShoulder
				{
					OFFSET -12.896300 26.716293 -4.548400
					CHANNELS 3 Xrotation Yrotation Zrotation
					JOINT RightArm
					{
						OFFSET -19.027000 -4.857010 -1.718400
						CHANNELS 3 Xrotation Yrotation Zrotation
						JOINT RightForeArm
						{
							OFFSET -24.179897 0.000000 0.000000
							CHANNELS 3 Xrotation Yrotation Zrotation
							JOINT RightHand
							{
								OFFSET -27.156403 0.000000 0.000000
								CHANNELS 3 Xrotation Yrotation Zrotation
								JOINT RightHandThumb1
								{
									OFFSET -6.591202 -4.852203 5.988100
									CHANNELS 3 Xrotation Yrotation Zrotation
									JOINT RightHandThumb2
									{
										OFFSET -3.818176 -2.204422 2.204423
										CHANNELS 3 Xrotation Yrotation Zrotation
										JOINT RightHandThumb3
										{
											OFFSET -3.252098 -1.877594 1.877601
											CHANNELS 3 Xrotation Yrotation Zrotation
											JOINT RightHandThumb4
											{
												OFFSET -5.251778 -3.032120 3.032117
												CHANNELS 3 Xrotation Yrotation Zrotation
												End Site
												{
													OFFSET -0.000023 6.780014 0.000000
												}
											}
										}
									}
								}
								JOINT RightHandIndex1
								{
									OFFSET -16.029404 0.000000 0.000000
									CHANNELS 3 Xrotation Yrotation Zrotation
									JOINT RightHandIndex2
									{
										OFFSET -5.213303 0.000000 0.000000
										CHANNELS 3 Xrotation Yrotation Zrotation
										JOINT RightHandIndex3
										{
											OFFSET -6.386528 0.000000 0.000000
											CHANNELS 3 Xrotation Yrotation Zrotation
											JOINT RightHandIndex4
											{
												OFFSET -5.189026 0.000000 0.000000
												CHANNELS 3 Xrotation Yrotation Zrotation
												End Site
												{
													OFFSET 0.236702 5.183624 0.001972
												}
											}
										}
									}
								}
							}
						}
					}
				}
			}
		}
	}
	JOINT LeftUpLeg
	{
		OFFSET 14.073000 -7.904099 -1.463000
		CHANNELS 3 Xrotation Yrotation Zrotation
		JOINT LeftLeg
		{
			OFFSET -0.109806 -34.073280 4.093200
			CHANNELS 3 Xrotation Yrotation Zrotation
			JOINT LeftFoot
			{
				OFFSET 0.109806 -29.899420 -6.319000
				CHANNELS 3 Xrotation Yrotation Zrotation
				JOINT LeftToeBase
				{
					OFFSET 1.551100 -14.988700 20.535801
					CHANNELS 3 Xrotation Yrotation Zrotation
					JOINT LeftToe_End
					{
						OFFSET 0.221200 0.570800 13.248301
						CHANNELS 3 Xrotation Yrotation Zrotation
						End Site
						{
							OFFSET 0.000000 13.262435 0.000000
						}
					}
				}
			}
		}
	}
	JOINT RightUpLeg
	{
		OFFSET -13.839300 -7.904099 -1.463000
		CHANNELS 3 Xrotation Yrotation Zrotation
		JOINT RightLeg
		{
			OFFSET 0.109694 -34.073219 4.093300
			CHANNELS 3 Xrotation Yrotation Zrotation
			JOINT RightFoot
			{
				OFFSET -0.109694 -29.899384 -6.319200
				CHANNELS 3 Xrotation Yrotation Zrotation
				JOINT RightToeBase
				{
					OFFSET -1.551100 -14.988700 20.535801
					CHANNELS 3 Xrotation Yrotation Zrotation
					JOINT RightToe_End
					{
						OFFSET -0.221200 0.570900 13.248299
						CHANNELS 3 Xrotation Yrotation Zrotation
						End Site
						{
							OFFSET 0.000000 13.262440 0.000000
						}
					}
				}
			}
		}
	}
}
MOTION
Frames: 6
Frame Time: 0.033333
0.827320 73.616295 1.477226 4.554479 16.645410 -10.246097 -1.189843 -1.385688 0.481075 -2.435822 -2.852144 -0.873018 -2.435820 -2.852147 -0.873014 5.734752 18.254990 -0.301841 7.499284 39.902334 -23.386653 0.000000 -0.000001 -0.000002 0.510248 4.559286 -8.554875 -8.007447 -15.746260 -72.205598 -9.284341 -97.338904 8.391301 -95.614999 -27.177917 -6.976047 7.554887 5.560396 -33.410376 -14.917837 -6.767411 -80.641906 0.000009 0.000011 -0.000010 -0.000000 -0.000003 -0.000002 3.592083 4.185685 -5.133821 1.252891 4.302580 1.889373 0.000008 -0.000024 -0.000009 0.000001 -0.000002 0.000000 8.961821 16.742530 -0.704265 31.105573 45.020645 3.399691 -0.220284 97.120044 0.184622 -13.011294 31.972624 -17.300937 15.407466 -4.518716 17.010994 11.550401 4.015403 -20.411402 -0.000010 0.000006 0.000013 0.000000 0.000000 0.000000 1.857059 -0.976117 4.781773 -1.775896 -0.095303 22.317056 0.000006 -0.000003 0.000007 0.000003 -0.000001 -0.000003 -49.414534 9.529879 20.444991 98.511839 24.961223 -1.434502 -4.531488 -0.271595 4.366779 -24.516025 10.650883 -27.707798 0.000000 -0.000000 -0.000000 -45.444155 -2.952284 15.311238 52.081391 -17.685455 -2.861502 -11.810169 -0.300895 1.120306 -0.050478 -2.352379 1.581478 0.000000 -0.000000 -0.000000 
4.211216 74.112801 1.428541 4.440952 15.687676 -9.555415 -1.261761 -1.177697 0.159556 -2.565895 -2.461119 -1.117862 -2.565895 -2.461118 -1.117865 5.719833 18.482348 -0.276408 7.516659 40.124759 -23.198307 0.000001 -0.000001 -0.000000 0.477190 4.920572 -8.213328 -7.695084 -14.819687 -72.465753 -9.982865 -97.263226 7.797259 -95.490983 -26.357570 -6.982834 7.554888 5.560395 -33.410376 -14.917840 -6.767412 -80.641906 0.000003 0.000015 -0.000006 0.000000 -0.000000 0.000000 3.592085 4.185684 -5.133825 1.252892 4.302579 1.889372 0.000008 -0.000023 -0.000008 -0.000002 0.000000 0.000000 8.913954 16.852467 -0.544292 30.992451 46.344118 4.060370 -1.513358 96.084349 1.574331 -13.222123 32.178421 -16.838006 15.407460 -4.518715 17.010993 11.550400 4.015403 -20.411406 -0.000010 0.000007 0.000013 0.000001 -0.000000 -0.000000 1.857063 -0.976115 4.781773 -1.775895 -0.095303 22.317061 0.000006 -0.000001 0.000005 -0.000000 -0.000000 -0.000002 -50.409402 4.852661 21.921509 94.821897 29.757157 0.098787 -7.673146 -0.490114 5.132281 -21.074325 1.051810 -21.221101 0.000001 0.000001 -0.000001 -44.566182 -1.240369 12.701646 52.176539 -15.716122 -3.921417 -12.285313 -0.935498 4.370203 -0.050144 -2.352358 1.581268 0.000000 -0.000000 -0.000000 
7.692641 74.454155 1.351917 4.370930 14.725649 -8.994732 -1.371675 -0.967237 -0.162572 -2.770693 -2.012351 -1.262994 -2.770693 -2.012353 -1.262997 5.727368 18.724637 -0.014051 7.675092 40.419075 -23.125854 -0.000000 -0.000001 -0.000000 0.419439 5.368220 -7.745572 -7.383123 -14.511519 -73.445045 -12.599483 -97.486682 4.693641 -94.869572 -26.179400 -7.275722 7.554886 5.560396 -33.410379 -14.917837 -6.767414 -80.641906 0.000008 0.000016 -0.000009 0.000001 0.000002 0.000002 3.592082 4.185681 -5.133826 1.252892 4.302583 1.889376 0.000008 -0.000022 -0.000012 -0.000001 0.000000 0.000001 8.777159 16.976471 -0.064301 31.764368 46.094904 3.906538 -2.069616 95.736508 2.483710 -12.605697 33.290427 -17.556238 15.407469 -4.518715 17.010993 11.550403 4.015402 -20.411402 -0.000008 0.000007 0.000012 -0.000002 0.000000 -0.000000 1.857062 -0.976116 4.781772 -1.775896 -0.095303 22.317059 0.000003 -0.000002 0.000005 -0.000002 -0.000002 -0.000001 -50.230782 2.138463 24.472819 87.528936 30.690950 2.156981 -12.031737 -0.975657 6.719855 -18.067691 -6.598839 -12.774790 -0.000000 0.000001 0.000001 -43.653511 0.468765 9.966202 52.059985 -13.739057 -4.842633 -12.623383 -1.538531 7.614460 -0.049302 -2.352339 1.580575 0.000000 -0.000000 -0.000000 
11.197789 74.637337 1.284686 4.436572 13.721408 -8.572348 -1.509632 -0.753379 -0.432630 -3.033051 -1.523058 -1.267542 -3.033050 -1.523055 -1.267543 5.618614 19.009333 0.234145 7.812239 40.719556 -22.973213 -0.000000 0.000002 0.000000 0.378701 5.889764 -7.295089 -7.254276 -14.139751 -73.771275 -12.200631 -97.603280 4.822531 -94.611412 -25.742773 -7.368870 7.554886 5.560390 -33.410376 -14.917837 -6.767413 -80.641906 0.000009 0.000013 -0.000012 0.000002 -0.000003 -0.000001 3.592081 4.185683 -5.133824 1.252894 4.302576 1.889372 0.000010 -0.000021 -0.000011 -0.000001 0.000002 0.000000 8.611807 17.115214 0.514167 32.566492 46.399278 3.186500 0.419835 95.531718 0.209776 -12.116854 33.468805 -18.265406 15.407462 -4.518715 17.010991 11.550400 4.015404 -20.411404 -0.000008 0.000007 0.000012 0.000001 -0.000000 -0.000001 1.857062 -0.976116 4.781773 -1.775902 -0.095303 22.317059 0.000005 -0.000004 0.000008 -0.000001 0.000001 0.000002 -49.470227 1.928986 27.512796 77.696107 28.302550 4.704657 -17.462685 -2.016094 9.564247 -12.105650 -11.419924 -2.684139 0.000001 -0.000001 -0.000001 -42.796500 2.164720 7.184148 51.690834 -11.809464 -5.623433 -12.808448 -2.075185 10.798264 -0.047993 -2.352292 1.579452 0.000000 0.000000 -0.000000 
14.740138 74.691109 1.233436 4.582416 12.728303 -8.300254 -1.641595 -0.534856 -0.668077 -3.286717 -0.997264 -1.166557 -3.286717 -0.997265 -1.166554 5.365260 19.316856 0.440059 7.912358 40.995516 -22.774339 -0.000001 0.000000 0.000001 0.346600 6.384816 -6.898725 -7.223130 -14.034536 -74.193271 -11.882534 -97.791397 4.857488 -94.358606 -25.450053 -7.521147 7.554888 5.560396 -33.410376 -14.917835 -6.767414 -80.641906 0.000010 0.000013 -0.000014 0.000002 0.000005 0.000003 3.592085 4.185685 -5.133823 1.252891 4.302584 1.889375 0.000008 -0.000020 -0.000010 -0.000000 0.000003 0.000001 8.465635 17.320690 1.007615 33.281671 46.194492 2.623813 2.368254 95.757449 -1.634621 -11.432144 33.492191 -19.029836 15.407460 -4.518717 17.010994 11.550403 4.015405 -20.411404 -0.000009 0.000007 0.000013 0.000000 -0.000001 0.000000 1.857057 -0.976117 4.781774 -1.775898 -0.095303 22.317061 0.000004 -0.000003 0.000007 0.000001 -0.000002 0.000002 -48.861135 3.861865 30.908617 66.611591 22.498047 7.397929 -20.938319 -3.007388 12.339512 -6.165020 -12.365921 7.294842 -0.000000 -0.000000 -0.000001 -41.857083 3.883554 4.378345 50.952887 -10.022760 -6.269886 -12.805189 -2.543598 13.988803 -0.046472 -2.352240 1.577712 -0.000000 -0.000000 -0.000000 
18.346296 74.683395 1.146749 4.598887 11.715968 -8.144869 -1.730053 -0.307484 -0.800160 -3.459447 -0.471314 -1.025552 -3.459447 -0.471316 -1.025551 5.023583 19.615595 0.564380 7.995926 41.231813 -22.617519 0.000000 -0.000000 -0.000000 0.315988 6.733215 -6.601861 -7.317800 -14.057024 -74.737064 -12.120237 -97.753797 4.493573 -94.204722 -25.156078 -7.861978 7.554888 5.560396 -33.410369 -14.917833 -6.767414 -80.641906 0.000007 0.000019 -0.000013 0.000002 0.000001 0.000000 3.592084 4.185688 -5.133824 1.252890 4.302584 1.889377 0.000012 -0.000023 -0.000010 -0.000001 -0.000002 0.000001 8.393538 17.621963 1.209017 33.545340 45.836191 2.780892 1.833956 95.930335 -1.173701 -10.843126 33.515854 -19.439133 15.407466 -4.518715 17.010993 11.550399 4.015403 -20.411404 -0.000008 0.000005 0.000014 0.000001 -0.000000 -0.000000 1.857059 -0.976116 4.781773 -1.775893 -0.095303 22.317059 0.000008 -0.000003 0.000003 0.000002 -0.000001 -0.000002 -50.661934 4.232420 36.933572 60.441485 5.368550 7.803121 -15.902791 -0.484536 8.062621 -5.995807 -10.572578 6.626720 -0.000002 0.000001 -0.000003 -40.524008 5.567713 1.558658 49.567612 -8.297598 -6.832322 -12.452492 -2.941989 17.182164 -0.044549 -2.352163 1.575689 -0.000000 0.000000 0.000000 
